<svg width="598" height="128" viewBox="0 0 598 128" fill="none" xmlns="http://www.w3.org/2000/svg">
<path d="M86.4455 8.83765e-06C84.1248 0.579193 75.7123 4.34388 71.071 38.2262L83.2546 59.9456C84.1248 61.104 85.2851 63.4207 85.2851 63.4207C86.4455 66.027 87.0257 68.923 87.0257 71.8189C87.0257 83.4026 77.4528 92.6695 65.8494 92.6695C54.246 92.6695 44.9633 83.4026 44.9633 71.8189C44.9633 68.923 45.5434 66.027 46.7038 63.4207V62.8415C47.2839 61.9727 47.8641 61.104 48.4443 60.2352L60.6279 38.2262C56.2766 4.63347 47.574 0.579193 45.2533 8.83765e-06C19.1456 8.68778 1.77054e-05 33.3031 1.77054e-05 62.2623C1.77054e-05 98.4614 29.5887 128 65.8494 128C102.11 128 131.699 98.4614 131.699 62.2623C131.699 33.3031 112.843 8.68778 86.4455 8.83765e-06Z" fill="#0273B7"/>
<path d="M43.5128 8.83766e-06C22.0465 7.23982 5.22153 25.1945 -8.85271e-06 47.4931C4.35127 51.2578 8.70258 54.4434 13.3439 56.7601C19.1457 46.3348 35.6805 37.647 58.0171 32.4343C53.3757 4.05429 45.8335 0.289601 43.5128 8.83766e-06Z" transform="translate(1.73828)" fill="#0D96D4"/>
<path d="M8.85271e-06 24.3258C6.96206 28.0905 14.7944 30.1176 22.6267 30.1176C25.8176 30.1176 29.2986 29.828 32.4896 29.2488C32.7797 28.6696 33.0698 28.38 33.3598 27.8009L45.5434 5.79185C45.5434 4.92307 45.2533 3.7647 45.2533 2.89592C45.2533 2.70286 45.1567 2.50981 44.9633 2.31675C44.9633 1.73756 44.9633 1.15836 44.9633 0.579176C44.6732 0.579176 44.6732 0.289592 44.6732 0C22.3366 5.21266 5.80172 13.9004 8.85271e-06 24.3258Z" transform="translate(15.0859 32.4346)" fill="#0EB2E8"/>
<path d="M20.8862 2.60632C20.0159 2.02714 18.8556 1.73756 17.9853 1.44797C17.9853 1.15838 17.6952 1.15836 17.4051 1.15836C16.2448 0.579176 15.3745 0.289601 14.2142 8.83766e-06C12.1836 0.289601 4.93145 3.76469 0 30.1176C5.51163 29.2488 11.0233 28.6696 16.825 28.0905C20.8862 21.4298 24.3672 13.9004 27.268 5.79185C25.2374 4.63349 23.2068 3.4751 20.8862 2.60632Z" transform="translate(72.2344)" fill="#0D96D4"/>
<path d="M13.634 8.83766e-06C8.70255 6.66063 4.06119 13.9004 -8.85271e-06 21.7194C9.8629 27.5113 21.4663 30.9864 33.6499 30.9864C50.765 30.9864 66.4296 24.3258 78.033 13.6108V13.9004C53.0857 12.1629 30.459 6.95022 13.634 8.83766e-06Z" transform="translate(32.1992 97.0137)" fill="#0C9EDA"/>
<path d="M17.4051 32.8406C16.8249 32.551 16.5349 32.551 16.2448 32.551C15.9547 32.551 15.6646 32.551 15.3745 32.2614C15.0844 32.2614 14.5043 32.2614 14.2142 31.9718C13.9241 31.9718 13.634 31.9718 13.3439 31.6822C13.0538 31.6822 12.7638 31.6822 12.4737 31.3926C12.1836 31.3926 11.8935 31.3926 11.6034 31.103C11.3133 31.103 11.0232 30.8134 11.0232 30.8134C10.4431 30.5238 10.153 30.5238 9.86292 30.2342H9.57281C8.70256 29.6551 7.83232 29.0759 6.96206 28.4967V28.2071C4.64138 31.103 2.32067 33.999 -1.77054e-05 37.1845C16.8249 44.1347 39.4516 49.3473 64.399 51.0849C64.399 51.0849 64.399 50.7953 64.6891 50.7953C65.2692 50.2161 65.8494 49.6369 66.1395 49.0577C66.4296 49.0577 66.7197 48.7681 67.0098 48.4785C67.5899 47.8994 68.1701 47.0306 69.0404 46.4514C69.0404 46.1618 69.3305 46.1618 69.3305 45.8722C69.9106 45.293 70.4908 44.7138 70.7809 44.1347C71.071 43.8451 71.3611 43.5555 71.6511 43.2659C71.9412 42.6867 72.5214 42.1075 72.8115 41.5284C73.1016 41.5284 73.1015 41.2387 73.3916 40.9492C73.9718 40.0804 74.552 39.2116 75.1322 38.3428L75.4222 38.0532C76.0024 37.1845 76.2925 36.6053 76.5826 35.7365C76.8727 35.4469 77.1628 35.1573 77.1628 34.8677C77.4528 34.2885 78.033 33.7094 78.3231 33.1302C78.3231 32.8406 78.6132 32.551 78.6132 32.2614C79.1934 31.3926 79.4834 30.8134 79.7735 29.9447C79.7735 29.6551 80.0636 29.6551 80.0636 29.3655C80.3537 28.4967 80.9338 27.6279 81.2239 26.7591C81.2239 26.4695 81.514 25.8904 81.514 25.6008C81.8041 25.0216 82.0942 24.4424 82.3843 23.8632C82.3843 23.284 82.3843 22.9944 82.6744 22.7048C82.6744 22.5118 82.7711 22.3187 82.9645 22.1257C78.6132 12.2795 72.2313 5.03971 63.8188 1.85419C56.2766 -1.04173 47.8641 -0.462543 39.1615 3.01257C39.1615 3.20563 39.1615 3.39868 39.1615 3.59174C39.3549 3.59174 39.4516 3.59174 39.4516 3.59174C40.612 6.19807 41.1922 9.094 41.1922 11.9899C41.1922 23.5736 31.6193 32.8406 20.0159 32.8406C19.4357 32.8406 18.8556 32.8406 17.9853 32.8406C17.7919 32.8406 17.5985 32.8406 17.4051 32.8406Z" transform="translate(45.8359 59.8301)" fill="#0EB2E8"/>
<path d="M32.4944 15.0588C32.4944 12.1629 33.0746 9.26694 34.2349 6.66061V6.08144C34.525 5.79185 34.8151 5.21266 35.1052 4.92306C31.9143 5.50225 28.4332 5.79185 25.2423 5.79185C17.41 5.79185 9.57767 3.7647 2.61562 4.41883e-06C1.16519 2.60633 0.294909 5.50224 0.00482384 8.10857C-0.285262 20.2715 12.4785 31.8552 33.3647 40.2533C34.2349 38.8054 35.3953 37.3574 36.5556 36.199C36.5556 35.9095 36.8457 35.6198 36.8457 35.6198C38.0061 34.1719 39.1664 32.7239 40.3267 31.276C40.3267 31.469 40.3267 31.5656 40.3267 31.5656C35.3953 27.5113 32.4944 21.7194 32.4944 15.0588Z" transform="translate(12.4688 56.7603)" fill="#0C9EDA"/>
<path d="M7.83232 32.8325C8.41249 33.7013 9.28272 35.1493 9.57281 35.7284C18.2754 32.2533 26.6879 31.6742 34.2301 34.5701C36.8408 35.4389 39.4516 36.8868 41.4822 38.6244C41.7723 38.6244 41.7723 38.914 41.7723 38.914C42.3525 39.2035 42.6426 39.4931 42.9326 39.7827C43.2227 39.7827 43.2228 40.0723 43.5128 40.3619C43.8029 40.3619 44.093 40.6515 44.093 40.9411C44.3831 41.2307 44.9632 41.5203 45.2533 41.8099C45.2533 42.0029 45.2533 42.0995 45.2533 42.0995C45.8335 42.6787 46.1236 42.9682 46.4137 43.5474C49.3146 46.7329 51.3451 50.4976 53.3757 54.8415C55.1162 48.7601 56.2766 42.0995 56.2766 35.1493C56.2766 22.4072 52.5055 10.2443 46.1236 0.108588C34.8103 -0.181004 23.787 0.108597 13.634 0.977374C9.57283 7.638 4.93147 13.7194 1.77054e-05 18.6425L7.83232 32.8325Z" transform="translate(75.4219 27.1138)" fill="#0C9EDA"/>
<path d="M17.9853 0C12.1836 0.579185 6.67197 1.15836 1.16034 2.02714C1.16034 3.18551 0.870266 4.34388 0.58018 5.79185V6.08143C0.290094 7.52939 0.290103 8.68777 1.77054e-05 10.1357L4.3513 17.6651C9.28276 12.7421 13.9241 6.66062 17.9853 0Z" transform="translate(71.0703 28.0908)" fill="#0EB2E8"/>
<path d="M-1.77054e-05 74.1356H15.9547V1.15836C15.3745 1.15836 14.5043 0.868777 13.0538 0.579185C11.6034 0 10.153 8.83766e-06 8.41249 8.83766e-06C5.80172 8.83766e-06 3.7711 0.289601 2.32068 1.44797C0.870248 2.31675 -1.77054e-05 4.05429 -1.77054e-05 6.66062V74.1356Z" transform="translate(163.32 17.3755)" fill="black"/>
<path d="M25.8176 -8.83766e-06C22.3366 0.289583 19.1456 0.579176 16.2448 1.44795C12.7638 2.60632 9.8629 4.0543 7.54222 6.08145C5.22153 7.819 3.19095 10.4253 2.03061 13.3213C0.58018 15.9276 1.77054e-05 19.4027 1.77054e-05 22.8778V57.0497H15.0845V26.9321C15.0845 18.2443 19.1457 13.6108 26.6879 13.3213C34.5202 13.6108 38.2913 18.2443 38.2913 26.9321V57.0497H53.6658V22.8778C53.6658 19.4027 52.7956 15.9276 51.6352 13.3213C50.1848 10.4253 48.4443 7.819 46.1236 6.08145C43.8029 4.0543 40.9021 2.60632 37.421 1.44795C34.5202 0.579176 31.3292 0.289583 27.8482 -8.83766e-06H25.8176Z" transform="translate(192.906 34.4629)" fill="black"/>
<path d="M31.6194 57.6289C31.6194 57.9184 31.3292 57.9185 30.749 58.2081C30.1689 58.4976 29.5887 59.0768 29.0085 59.3664C28.1383 59.656 27.268 59.9456 26.3978 60.2352C25.2374 60.5248 24.3671 60.5248 23.2068 60.5248C20.8861 60.5248 18.8556 59.9456 17.4051 58.7872C15.9547 57.6289 15.3745 55.6017 15.3745 52.4162V28.38H31.9094C32.1995 28.0904 32.4896 27.2217 32.7797 26.0633C33.3599 25.1945 33.6499 23.7466 33.6499 22.2986C33.6499 20.2715 33.0697 18.8235 31.9094 17.6651C31.0391 16.5068 29.2987 15.9276 26.978 15.9276H15.3745V1.15836C14.7944 1.15836 13.9241 0.868777 12.4737 0.579185C11.3134 0.289592 9.57282 8.83766e-06 7.83231 8.83766e-06C5.51163 8.83766e-06 3.77113 0.579193 2.3207 1.44797C0.870274 2.31675 8.85271e-06 4.05429 8.85271e-06 6.37103V53.8642C8.85271e-06 59.3664 1.45041 63.9999 4.64135 67.475C7.83229 71.2397 12.7638 72.9773 19.7258 72.9773C22.6267 72.9773 24.9474 72.6877 26.978 72.1085C29.2987 71.5293 31.0392 70.6605 32.4896 70.0813C33.94 69.2126 35.1004 68.6334 35.9706 68.0542C36.5508 67.475 37.131 66.8958 37.4211 66.8958L31.6194 57.6289Z" transform="translate(260.211 20.2715)" fill="black"/>
<path d="M38.0012 4.05429C37.131 3.18551 36.2607 2.31675 34.8103 1.73756C33.3599 1.15838 31.9094 0.868781 29.8788 0.579189C28.1383 0.289597 26.3978 -8.83766e-06 24.3672 -8.83766e-06C23.4969 -8.83766e-06 22.9167 -8.83766e-06 22.3365 -8.83766e-06C19.4357 0.289583 16.825 0.579176 14.2142 1.44795C11.3133 2.31673 8.70255 3.76469 6.67195 5.79184C4.64135 7.52939 2.90089 9.84613 1.74055 12.7421C0.580206 15.3484 1.77054e-05 18.5339 1.77054e-05 22.009V57.0497H15.0844V22.8778C15.0844 19.1131 16.2448 16.5068 17.9853 15.0588C20.0159 13.3212 22.3366 12.7421 24.9474 12.7421C25.2375 12.7421 25.5275 12.4525 25.8176 12.4525C26.6879 12.4525 27.8482 12.7421 29.0086 12.7421C30.1689 13.0316 31.0392 13.0317 32.1995 13.3213C33.0698 13.6108 33.94 13.9004 34.5202 14.19C35.3904 14.4796 35.6805 14.7692 35.9706 14.7692C36.5508 14.19 37.131 13.3212 38.0012 12.1629C38.8715 11.0045 39.1616 9.55655 39.1616 7.52941C39.1616 6.08145 38.8715 4.92306 38.0012 4.05429Z" transform="translate(368.406 34.4629)" fill="black"/>
<path d="M49.3145 15.9276C52.7955 12.4525 53.6658 9.84613 53.9559 8.39817C53.9559 8.20511 53.9559 8.01205 53.9559 7.81899V7.5294C53.9559 7.23981 53.9559 6.66062 53.9559 6.37103C53.9559 4.63348 53.6658 2.89593 53.0857 1.73756C52.2154 0.579189 50.765 8.83766e-06 48.7344 8.83766e-06H1.45039C1.16031 0.289601 0.870257 1.15836 0.580171 2.31673C0.290086 3.4751 0.290068 4.63348 0.290068 6.08144C0.290068 7.819 0.580136 9.26696 1.45039 10.4253C2.03056 11.5837 3.48106 12.1629 5.51166 12.1629H33.6499L-3.54108e-05 43.1492V55.3121H53.6658V43.1492H19.1456L49.3145 15.9276Z" transform="translate(543.047 36.1987)" fill="black"/>
<path d="M56.8568 26.6425C56.8568 22.5882 55.9865 19.1131 54.5361 15.9276C53.3757 12.7421 51.3451 9.84615 49.0245 7.52941C46.4137 5.21267 43.5128 3.18552 40.0318 2.02715C36.8408 0.868781 33.3598 -8.83766e-06 29.5887 -8.83766e-06C29.0085 -8.83766e-06 28.7184 -8.83766e-06 28.1383 -8.83766e-06C24.0771 -8.83766e-06 20.5961 0.579189 17.115 2.02715C13.634 3.18552 10.7331 5.21267 8.12238 7.52941C5.51161 9.84615 3.77109 12.4525 2.32067 15.9276C0.870239 19.1131 1.77054e-05 22.5882 1.77054e-05 26.6425C1.77054e-05 30.4072 0.870239 34.1719 2.32067 37.3574C3.48101 40.5429 5.51159 43.4388 7.83227 45.7556C10.443 48.0723 13.3439 49.8099 16.8249 51.2578C20.306 52.4162 24.0771 53.285 28.1383 53.285H28.4284C32.4896 53.285 36.2607 52.4162 39.7417 51.2578C40.3219 50.9682 40.902 50.6786 41.4822 50.389V51.5474C41.4822 54.4433 41.1921 56.7601 40.3219 58.4976C39.4516 60.2352 38.2913 61.9727 37.1309 63.1311C35.6805 64.2895 33.94 65.1583 31.9094 65.7374C29.8788 66.027 27.8482 66.3166 25.5275 66.3166C23.2068 66.3166 20.8862 66.3166 18.8556 66.027C17.1151 65.4479 15.3745 65.1583 13.634 64.8687C12.1836 64.2895 11.0233 63.9999 10.153 63.7103C9.28275 63.4207 8.70257 63.1311 8.41248 62.8415L2.32067 73.5564C2.61075 73.846 3.48103 74.1356 4.0612 74.4252C5.22154 75.0044 6.96209 75.5836 8.99269 75.8732C11.0233 76.4524 13.6341 77.0315 16.2448 77.3211C18.8556 77.9003 21.7564 77.9003 24.9474 77.9003C29.5888 77.9003 33.6499 77.3211 37.7111 76.1628C41.4822 74.7148 44.9633 72.9772 47.574 70.3709C50.4749 67.475 52.7955 64.2895 54.246 60.2352C55.9865 56.1809 56.8568 51.2578 56.8568 45.466V31.5656C56.8568 30.6968 56.5667 29.5384 56.5667 28.6696C56.5667 27.8009 56.8568 27.2217 56.8568 26.6425ZM38.0012 37.3574C35.6806 40.2533 32.1995 41.7013 28.4284 41.7013C24.3672 41.7013 20.8862 40.2533 18.5655 37.3574C16.2448 34.7511 15.0844 30.9864 15.0844 26.6425C15.0844 22.009 16.2448 18.5339 18.5655 15.638C20.8862 13.0316 24.3672 11.5837 28.4284 11.5837C32.1995 11.5837 35.6806 13.0316 38.0012 15.638C40.3219 18.5339 41.4822 22.009 41.4822 26.6425C41.4822 30.9864 40.3219 34.7511 38.0012 37.3574Z" transform="translate(413.371 34.4629)" fill="black"/>
<path d="M50.765 12.4525C49.3145 9.26695 46.9939 6.95021 44.3831 5.21266C41.7724 3.18551 38.5814 2.02714 35.1004 1.15836C31.3292 0.289583 27.268 8.83766e-06 22.9167 8.83766e-06C20.596 8.83766e-06 18.2754 0.289592 16.2448 0.579185C13.9241 0.868777 11.8935 1.15837 10.153 2.02715C8.70255 2.60633 7.25214 3.47511 6.0918 4.63348C5.22154 5.79185 4.64137 7.23982 4.64137 8.68778C4.64137 10.4253 4.93144 11.8733 5.80169 13.0317C6.67195 14.19 7.54221 15.0588 8.70255 15.638C8.99263 15.3484 9.86293 15.0588 10.7332 14.4796C11.3134 13.9004 12.4737 13.3213 13.634 13.0317C14.7944 12.4525 16.2448 11.8733 17.9853 11.5837C19.7258 11.0045 21.4663 11.0045 23.787 11.0045C28.4284 11.0045 32.1995 11.8733 34.5201 13.6108C36.8408 15.3484 38.0012 17.9547 38.0012 21.4298V23.1674C37.421 23.1674 36.2607 22.8778 34.2301 22.8778C31.9094 22.5882 29.2986 22.5882 25.8176 22.5882C21.1762 22.5882 17.1151 22.8778 13.9241 23.457C10.7332 24.3258 7.83229 25.4841 5.80169 26.9321C3.77109 28.38 2.32065 30.4072 1.16031 32.7239C0.29005 35.0407 -1.77054e-05 37.647 -1.77054e-05 40.8325C-1.77054e-05 43.1493 0.29005 45.466 1.16031 47.7827C1.74048 49.8099 3.19098 51.837 5.22158 53.285C7.25217 55.0225 9.86291 56.1809 13.3439 57.0497C16.825 57.9185 21.1763 58.4976 26.6879 58.4976C30.1689 58.4976 33.6499 58.2081 36.8409 58.2081C40.0318 57.9185 42.6426 57.6289 44.9632 57.6289C47.2839 57.3393 49.0244 57.0497 50.4748 56.7601C51.9253 56.7601 52.5055 56.4705 52.7956 56.4705V24.0362C52.7956 19.4027 52.2154 15.638 50.765 12.4525ZM37.7111 47.2035C36.5508 47.2035 33.6499 47.7827 31.9094 48.0723C30.1689 48.3619 27.8482 48.3619 25.2375 48.3619C22.6267 48.3619 20.5961 48.0723 18.8555 47.7827C17.115 47.2036 15.9547 46.6244 15.0845 45.7556C14.2142 45.1764 13.634 44.3076 13.3439 43.4389C13.0538 42.2805 12.7637 41.4117 12.7637 40.5429C12.7637 39.3846 13.0538 38.2262 13.3439 37.0678C13.634 35.9094 14.2142 35.0407 15.0845 34.4615C15.9547 33.5927 17.4051 33.0135 18.8555 32.7239C20.5961 32.1447 22.9168 31.8552 25.5276 31.8552C26.6879 31.8552 27.8482 31.8552 29.0085 31.8552C30.1689 32.1448 31.0391 32.1447 31.9094 32.1447C33.0697 32.1447 33.6499 32.4343 34.5201 32.4343C34.8102 32.4343 36.5508 32.7239 37.7111 33.0135V47.2035Z" transform="translate(479.516 34.751)" fill="black"/>
<path d="M22.0465 36.199C28.4284 36.199 33.6499 35.6198 38.0012 34.7511C42.0624 33.8823 45.5434 32.7239 47.8641 31.276C50.4749 29.828 51.9253 27.8009 53.0856 25.7737C53.9559 23.7466 54.536 21.1402 54.536 18.5339C54.536 16.2172 53.9559 13.6108 52.7956 11.5837C51.9253 9.26694 50.1848 7.2398 48.1542 5.79184C46.1236 4.05428 43.8029 2.60634 40.612 1.73756C38.8715 1.15838 37.131 0.579193 35.1004 0.289601C33.3599 8.82471e-06 31.3293 -8.83766e-06 29.2987 -8.83766e-06C24.9474 -8.83766e-06 20.8862 0.868777 17.4051 2.31674C13.634 3.7647 10.7331 5.79184 8.12236 8.39817C5.51159 11.0045 3.48106 14.19 2.03063 17.6651C0.580207 21.4298 0 25.4841 0 30.1176C0 35.0407 0.870221 39.3846 2.32065 42.8597C3.77108 46.6244 5.80171 49.5203 8.70257 51.837C11.3133 54.4433 14.5042 56.1809 18.2754 57.3393C21.7564 58.4976 25.8176 59.0768 30.1689 59.0768C33.3598 59.0768 36.2607 58.7872 38.5813 58.4976C41.1921 57.9185 43.5128 57.6289 45.2534 57.0497C46.9939 56.7601 48.4443 56.1809 49.6046 55.8913C50.765 55.3121 51.3451 55.0225 51.6352 55.0225L47.2839 44.018C46.7037 44.3076 45.2534 44.8868 42.6426 45.7556C40.3219 46.3348 36.5508 46.6244 31.9094 46.6244C27.268 46.6244 23.7871 45.7556 20.8862 43.4388C17.9853 41.4117 16.2448 39.095 15.6646 35.9094H17.6952C19.1457 36.199 20.5961 36.199 22.0465 36.199ZM14.7944 26.0633C15.0845 24.0362 15.3745 22.2986 15.9547 20.5611C16.825 18.8235 17.6952 17.0859 18.8556 15.638C20.0159 14.19 21.7564 13.3212 23.4969 12.4525C25.2375 11.5837 27.5581 11.0045 29.8788 11.0045C32.7796 11.0045 35.1003 11.5837 37.1309 13.0316C39.1615 14.19 40.0318 15.9276 40.0318 18.5339C40.0318 19.4027 40.0318 20.2715 39.4517 21.1402C39.1616 22.2986 38.2913 22.8778 37.1309 23.7466C35.9706 24.3258 34.2301 24.9049 31.9094 25.4841C29.8788 26.0633 26.978 26.0633 23.2068 26.0633H19.1457C17.6952 26.0633 16.5349 26.0633 14.7944 26.0633Z" transform="translate(302.852 34.4629)" fill="black"/>
</svg>
